<?xml version="1.0" encoding="utf-8"?>
<!-- Generator: Adobe Illustrator 21.1.0, SVG Export Plug-In . SVG Version: 6.00 Build 0)  -->
<svg version="1.1" id="Layer_1" xmlns="http://www.w3.org/2000/svg" xmlns:xlink="http://www.w3.org/1999/xlink" x="0px" y="0px"
	 viewBox="0 0 338 46" style="enable-background:new 0 0 338 46;" xml:space="preserve">
<style type="text/css">
	<!--.st0{fill:#F9F4F4;}-->
	.st0{fill:#ff4b1e;}
</style>
<g>
	<path class="st0" d="M301.8,42l0-6c0-0.6-0.4-1-1-1h-20c-0.6,0-1-0.4-1-1v-7c0-0.6,0.4-1,1-1h16c0.6,0,1-0.4,1-1l0-6
		c0-0.6-0.4-1-1-1h-16c-0.6,0-1-0.4-1-1v-5c0-0.6,0.4-1,1-1h19c0.6,0,1-0.4,1-1l0-6c0-0.6-0.4-1-1-1l-27,0c-0.6,0-1,0.4-1,1v38
		c0,0.6,0.4,1,1,1l28,0C301.3,43,301.8,42.6,301.8,42z"/>
	<g>
		<path class="st0" d="M196.8,44c-11.6,0-21-9.4-21-21s9.4-21,21-21s21,9.4,21,21S208.3,44,196.8,44z M196.8,10c-7.2,0-13,5.8-13,13
			s5.8,13,13,13s13-5.8,13-13S203.9,10,196.8,10z"/>
	</g>
	<g>
		<path class="st0" d="M160.7,44c-5.7,0-11.4-2.3-15.5-6.9C138,29.3,138,16.9,145.1,9c7.9-8.8,21.2-9.3,29.8-1.6
			c0.4,0.4,0.4,1,0,1.4l-4.2,4.2c-0.4,0.4-1,0.4-1.3,0.1c-5.1-4.4-12.9-4.2-17.7,0.6c-5.1,5.1-5.1,13.3,0,18.4
			c4.9,4.9,12.6,5.1,17.7,0.6c0.4-0.3,1-0.3,1.3,0.1l4.2,4.2c0.4,0.4,0.4,1.1,0,1.4C170.9,42.2,165.8,44,160.7,44z"/>
	</g>
	<g>
		<path class="st0" d="M319.5,44c-8.1-0.4-14.2-7.3-14.2-15.4V4c0-0.6,0.4-1,1-1h6c0.6,0,1,0.4,1,1v24.8c0,3.6,2.6,6.7,6.1,7.2
			c4.3,0.5,7.9-2.8,7.9-6.9V4c0-0.6,0.4-1,1-1h6c0.6,0,1,0.4,1,1v25C335.2,37.5,328.1,44.4,319.5,44z"/>
	</g>
	<path class="st0" d="M59.1,43h6.3c0.7,0,1.2-0.7,1-1.3l-12.4-38C53.8,3.3,53.4,3,53,3h-8.4c-0.4,0-0.8,0.3-1,0.7l-12.4,38
		c-0.2,0.6,0.3,1.3,1,1.3h6.3c0.4,0,0.8-0.3,1-0.7l2.8-8.6c0.1-0.4,0.5-0.7,1-0.7h11.1c0.4,0,0.8,0.3,1,0.7l2.8,8.6
		C58.2,42.7,58.6,43,59.1,43z M45.6,23.7l2.3-7c0.3-0.9,1.6-0.9,1.9,0l2.3,7c0.2,0.6-0.3,1.3-1,1.3h-4.6
		C45.8,25,45.4,24.3,45.6,23.7z"/>
	<path class="st0" d="M131.9,43h6.3c0.7,0,1.2-0.7,1-1.3l-12.4-38c-0.1-0.4-0.5-0.7-1-0.7h-8.4c-0.4,0-0.8,0.3-1,0.7l-12.4,38
		c-0.2,0.6,0.3,1.3,1,1.3h6.3c0.4,0,0.8-0.3,1-0.7l2.8-8.6c0.1-0.4,0.5-0.7,1-0.7h11.1c0.4,0,0.8,0.3,1,0.7l2.8,8.6
		C131.1,42.7,131.5,43,131.9,43z M118.4,23.7l2.3-7c0.3-0.9,1.6-0.9,1.9,0l2.3,7c0.2,0.6-0.3,1.3-1,1.3h-4.6
		C118.7,25,118.2,24.3,118.4,23.7z"/>
	<path class="st0" d="M85.6,33c0.8,0,1.6-0.1,2.4-0.2c0.5-0.1,0.9,0.2,1.1,0.7l2.9,8.8c0.1,0.4,0.5,0.7,1,0.7h6.3
		c0.7,0,1.2-0.7,1-1.3l-4-12.3c-0.1-0.4,0-0.7,0.2-1c2.6-2.7,4.2-6.4,4.2-10.4c0-8.3-6.7-15-15-15l-14,0c-0.6,0-1,0.4-1,1v38
		c0,0.6,0.4,1,1,1h6c0.6,0,1-0.4,1-1v-8c0-0.6,0.4-1,1-1L85.6,33z M78.6,24V12c0-0.6,0.4-1,1-1l6,0c4.2,0,7.5,3.7,6.9,7.9
		c-0.5,3.5-3.6,6.1-7.2,6.1l-5.8,0C79,25,78.6,24.6,78.6,24z"/>
	<path class="st0" d="M27.8,42v-6c0-0.6-0.4-1-1-1h-15c-0.6,0-1-0.4-1-1V4c0-0.6-0.4-1-1-1h-6c-0.6,0-1,0.4-1,1v38c0,0.6,0.4,1,1,1
		h23C27.3,43,27.8,42.6,27.8,42z"/>
	<path class="st0" d="M245.8,4v12.6c0,0.9-1.1,1.3-1.7,0.7l-14-14c-0.2-0.2-0.4-0.3-0.7-0.3h-6.6c-0.6,0-1,0.4-1,1v38
		c0,0.6,0.4,1,1,1h6c0.6,0,1-0.4,1-1V16.7c0-0.9,1.1-1.3,1.7-0.7l14,14c0.2,0.2,0.3,0.4,0.3,0.7V42c0,0.6,0.4,1,1,1h6
		c0.6,0,1-0.4,1-1V4c0-0.6-0.4-1-1-1h-6C246.2,3,245.8,3.4,245.8,4z"/>
</g>
</svg>
